<?xml version="1.0" standalone="no"?>
<!DOCTYPE svg PUBLIC "-//W3C//DTD SVG 20010904//EN"
 "http://www.w3.org/TR/2001/REC-SVG-20010904/DTD/svg10.dtd">
<svg version="1.0" xmlns="http://www.w3.org/2000/svg"
 width="900.000000pt" height="512.000000pt" viewBox="0 0 900.000000 512.000000"
 preserveAspectRatio="xMidYMid meet">

<g transform="translate(0.000000,512.000000) scale(0.100000,-0.100000)"
fill="#000000" stroke="none">
<path d="M2850 4674 c-228 -61 -406 -240 -465 -469 -18 -69 -20 -211 -4 -287
16 -81 91 -225 149 -290 100 -112 240 -186 395 -208 44 -6 630 -10 1585 -9
1619 0 1595 -1 1720 49 80 32 182 103 240 168 59 66 123 189 146 282 22 86 15
249 -15 340 -59 185 -203 333 -399 409 l-67 26 -1615 2 c-1396 2 -1622 0
-1670 -13z m3198 -416 c66 -16 135 -87 151 -154 23 -98 -22 -194 -112 -239
l-51 -25 -1536 0 -1536 0 -53 26 c-90 45 -134 140 -110 238 15 63 86 138 145
154 59 15 3040 16 3102 0z"/>
<path d="M2870 3184 c-228 -48 -426 -241 -484 -470 -20 -78 -20 -220 0 -304
41 -175 172 -340 334 -419 154 -75 45 -71 1780 -71 1327 0 1565 2 1625 15 233
49 435 245 489 475 20 83 20 217 0 300 -41 175 -172 340 -334 419 -154 75 -45
71 -1785 70 -1296 0 -1571 -3 -1625 -15z m3242 -449 c123 -87 123 -263 0 -350
l-44 -30 -1568 0 -1568 0 -44 30 c-136 96 -118 304 32 369 31 14 218 15 1592
13 l1556 -2 44 -30z"/>
<path d="M2914 1700 c-139 -20 -289 -102 -383 -207 -64 -71 -126 -190 -147
-279 -24 -101 -15 -267 18 -356 73 -195 223 -341 413 -401 l70 -22 1625 0
1625 0 67 26 c195 76 340 224 400 409 26 81 35 237 19 323 -16 83 -89 230
-146 295 -60 67 -156 136 -237 169 -132 54 -92 52 -1743 51 -841 0 -1553 -4
-1581 -8z m3175 -446 c89 -44 133 -141 110 -237 -16 -68 -85 -138 -151 -155
-67 -17 -3029 -17 -3096 0 -65 16 -134 86 -151 153 -25 98 19 193 110 239 l53
26 1536 0 1536 0 53 -26z"/>
</g>
</svg>
